<svg height="496pt" viewBox="0 0 496 496" width="496pt" xmlns="http://www.w3.org/2000/svg"><path d="m40 112h152c4.800781 0 8-3.199219 8-8v-64c0-4.800781-3.199219-8-8-8h-152c-4.800781 0-8 3.199219-8 8v64c0 4.800781 3.199219 8 8 8zm8-64h136v48h-136zm0 0"/><path d="m32 128h160v16h-160zm0 0"/><path d="m32 160h160v16h-160zm0 0"/><path d="m32 192h160v16h-160zm0 0"/><path d="m32 224h160v16h-160zm0 0"/><path d="m493.601562 98.398438-64-64c-1.601562-1.597657-3.203124-2.398438-5.601562-2.398438h-88v-24c0-4.800781-3.199219-8-8-8h-320c-4.800781 0-8 3.199219-8 8v440c0 26.398438 21.601562 48 48 48h320c26.398438 0 48-21.601562 48-48v-88c0-4.800781-3.199219-8-8-8h-72v-16h152c4.800781 0 8-3.199219 8-8v-224c0-2.398438-.800781-4-2.398438-5.601562zm-61.601562-39.199219 36.800781 36.800781h-36.800781zm-32 308.800781v80c0 17.601562-14.398438 32-32 32s-32-14.398438-32-32v-80zm-68 112h-284c-17.601562 0-32-14.398438-32-32v-432h304v16h-56c-4.800781 0-8 3.199219-8 8v288c0 4.800781 3.199219 8 8 8h56v112c0 12 4.800781 23.199219 12 32zm148-160h-208v-272h144v56c0 4.800781 3.199219 8 8 8h56zm0 0"/><path d="m288 224h88v16h-88zm0 0"/><path d="m288 256h88v16h-88zm0 0"/><path d="m288 288h88v16h-88zm0 0"/><path d="m288 192h176v16h-176zm0 0"/><path d="m288 160h176v16h-176zm0 0"/><path d="m288 128h176v16h-176zm0 0"/><path d="m32 448h272v16h-272zm0 0"/><path d="m32 416h272v16h-272zm0 0"/><path d="m32 384h272v16h-272zm0 0"/></svg>