<?xml version="1.0" encoding="utf-8"?>
<svg viewBox="-45.464 -14.725 222.017 154.912" width="222.017" height="154.912" xmlns="http://www.w3.org/2000/svg">
  <defs>
    <style>.cls-1{fill-rule:evenodd;}</style>
  </defs>
  <path class="cls-1" d="M 76.507 15.846 L 75.12 16.641 L 84.522 22.024 L 56.359 37.782 L 47.237 32.235 L 8.958 54.613 C 2.805 58.193 -6.706 52.658 -0.553 49.078 L 37.944 26.6 L 30.362 21.974 L 56.88 6.202 L 65.546 11.145 L 66.995 10.3 C 73.127 6.719 82.637 12.278 76.507 15.846 Z M 16.127 75.943 C 17.674 75.025 20.215 75.025 21.76 75.943 C 23.324 76.866 23.324 78.349 21.76 79.271 L 14.915 83.292 L 21.76 87.327 C 23.32 88.241 23.32 89.716 21.76 90.63 C 20.217 91.54 17.693 91.54 16.149 90.63 L 9.348 86.608 L 2.523 90.63 C 0.977 91.548 -1.563 91.548 -3.109 90.63 C -4.687 89.71 -4.687 88.222 -3.109 87.302 L 3.714 83.267 L -3.109 79.246 C -4.68 78.335 -4.68 76.854 -3.109 75.943 C -1.567 75.034 0.958 75.034 2.5 75.943 L 9.304 79.952 L 16.107 75.931 Z M -32.466 -7.942 C -33.227 -7.95 -33.86 -7.604 -33.894 -7.16 L -33.894 132.598 C -33.884 133.026 -33.289 133.372 -32.551 133.379 L 163.642 133.379 C 164.378 133.372 164.973 133.026 164.985 132.598 L 164.985 -7.16 C 164.963 -7.587 164.374 -7.929 163.642 -7.942 Z M -32.466 140.187 C -39.644 140.187 -45.464 136.801 -45.464 132.623 L -45.464 -3.579 C -46.148 -3.565 -46.811 -3.586 -47.421 -3.628 C -49.076 -3.742 -50.512 -4.102 -51.93 -4.71 C -53.37 -5.327 -55.122 -5.321 -55.987 -7.325 C -57.607 -11.078 -57.301 -26.636 -55.717 -30.498 C -54.876 -32.549 -53.47 -32.649 -51.93 -33.384 C -50.183 -34.217 -47.594 -34.854 -45.618 -35.007 C -43.83 -35.145 -41.942 -34.796 -40.568 -34.466 C -39.468 -34.201 -38.874 -33.989 -37.863 -33.384 C -36.522 -32.581 -34.474 -31.055 -33.264 -29.687 C -32.146 -28.421 -31.336 -27.172 -30.74 -25.539 C -30.066 -23.694 -29.476 -21.31 -29.658 -19.047 C -29.764 -17.727 -30.154 -16.186 -30.668 -14.725 L 161.908 -14.725 C 161.634 -15.92 161.544 -17.067 161.683 -18.425 C 161.9 -20.535 162.823 -23.57 163.847 -25.459 C 164.733 -27.092 165.847 -28.25 167.183 -29.336 C 168.566 -30.459 170.47 -31.473 172.053 -32.041 C 173.468 -32.549 174.747 -32.721 176.2 -32.762 C 177.744 -32.807 179.73 -32.547 181.07 -32.221 C 182.158 -31.957 182.764 -31.745 183.775 -31.139 C 185.115 -30.337 187.164 -28.811 188.373 -27.442 C 189.492 -26.176 190.302 -24.928 190.898 -23.295 C 191.572 -21.45 192.022 -18.781 191.98 -16.802 C 191.942 -15.031 191.655 -13.584 190.898 -11.933 C 190.019 -10.017 188.353 -7.575 186.66 -6.072 C 185.05 -4.643 182.963 -3.6 181.07 -3.006 C 179.575 -2.537 178.112 -2.323 176.553 -2.394 L 176.553 132.611 C 176.553 136.788 170.734 140.174 163.555 140.174 Z M 53.066 116.94 C 51.216 116.875 49.528 116.307 48.508 115.408 C 46.006 113.207 48.538 110.254 53.066 110.095 L 131.34 110.095 C 133.189 110.16 134.877 110.727 135.897 111.626 C 138.399 113.828 135.868 116.78 131.34 116.94 Z M 53.066 86.608 C 50.969 86.608 49.031 85.957 47.981 84.9 C 45.722 82.622 48.546 79.776 53.066 79.776 L 131.34 79.776 C 133.437 79.776 135.374 80.427 136.425 81.483 C 138.684 83.761 135.86 86.608 131.34 86.608 Z M -2.98 113.347 C -5.224 111.406 -3.013 108.78 0.996 108.621 C 2.858 108.546 4.646 109.055 5.686 109.956 L 8.698 112.414 L 18.489 105.279 C 21.154 103.528 26.076 104.111 27.351 106.329 C 27.9 107.284 27.598 108.336 26.548 109.136 L 12.424 119.322 C 12.059 119.585 11.638 119.819 11.167 120.016 C 8.762 120.946 5.517 120.569 3.908 119.172 L -2.85 113.347 Z M 68.08 62.92 C 61.212 62.92 61.233 56.616 68.08 56.616 L 74.58 56.616 C 71.063 55.33 71.26 52.312 74.932 51.183 C 75.583 50.985 76.294 50.864 77.027 50.83 L 119.511 50.83 C 123.646 50.878 126.14 53.514 124.002 55.574 C 123.513 56.041 122.826 56.428 122.001 56.693 L 128.503 56.693 C 135.434 56.693 135.434 62.92 128.503 62.92 Z M 55.795 3.013 L 24.816 21.041 C 19.919 23.889 12.337 19.464 17.232 16.628 L 48.234 -1.399 C 53.109 -4.236 60.692 0.176 55.795 3.013 Z M 97.327 27.167 L 66.347 45.195 C 61.45 48.044 53.867 43.619 58.765 40.782 L 89.744 22.755 C 94.617 19.906 102.223 24.331 97.327 27.167 Z" style=""/>
</svg>